:version 1.10
:name ASF
:units
  mass 1
  length 1
  angle deg
:documentation
  ASF file generated by Kaydara
:root
  axis xyz
  order  tx ty tz rx ry rz
  position 0 0 0
  orientation 0 0 0
:bonedata
  begin
    id 1
    name LeftUpLegDummy
    direction 1 -2.30186e-007 -8.31532e-007
    length 2.93387
    axis 0 0 0 xyz
  end
  begin
    id 2
    name LeftUpLeg
    direction -1.82929e-007 -1 -1.48925e-009
    length 17.3336
    axis -3.48766 0.00143442 -0.000521554 xyz
    dof rx ry rz
  end
  begin
    id 3
    name LeftLeg
    direction -1.82929e-007 -1 -5.23717e-011
    length 14.9995
    axis 3.68178 -0.00654042 -0.000282425 xyz
    dof rx ry rz
  end
  begin
    id 4
    name LeftFoot
    direction 8.31532e-007 -4.54534e-011 1
    length 6.74421
    axis 1.87234e-006 4.66016e-005 -5.96866e-006 xyz
    dof rx ry rz
  end
  begin
    id 5
    name LeftToes
    direction 0.00818058 -0.00485161 0.999955
    length 3.85048
    axis 1.06247e-005 4.65869e-005 -5.96999e-006 xyz
    dof rx ry rz
  end
  begin
    id 6
    name SpineDummy
    direction -5.8607e-008 0.943407 -0.331637
    length 5.93572
    axis 0 0 0 xyz
  end
  begin
    id 7
    name Spine
    direction -1.04988e-007 0.999988 0.00495137
    length 10.1015
    axis -0.001389 0.000121417 6.61666e-006 xyz
    dof rx ry rz
  end
  begin
    id 8
    name Spine1
    direction 0 0 0
    length 0
    axis -0.001389 0.00012144 6.56766e-006 xyz
    dof rx ry rz
  end
  begin
    id 9
    name RightShoulderDummy
    direction -0.98348 0.17941 -0.0240696
    length 3.59882
    axis -0.001389 0.00012144 6.56766e-006 xyz
  end
  begin
    id 10
    name RightShoulder
    direction -0.978693 0.204882 0.0135597
    length 2.70001
    axis 0.215806 0.000203631 -0.00679732 xyz
    dof rx ry rz
  end
  begin
    id 11
    name RightArm
    direction -1 3.85509e-006 8.31394e-007
    length 10.2459
    axis -23.2009 -0.134239 -0.964098 xyz
    dof rx ry rz
  end
  begin
    id 12
    name RightForeArm
    direction -1 3.85569e-006 8.3129e-007
    length 8.16799
    axis -9.92322 0.0658061 0.17887 xyz
    dof rx ry rz
  end
  begin
    id 13
    name RightHand
    direction -0.992843 -0.0414604 0.112003
    length 5.28593
    axis -0.00960638 0.00330669 -0.185225 xyz
    dof rx ry rz
  end
  begin
    id 14
    name LeftShoulder1Dummy
    direction 0.983523 0.179172 -0.0240748
    length 3.59866
    axis -0.001389 0.00012144 6.56766e-006 xyz
  end
  begin
    id 15
    name LeftShoulder1
    direction 0.978627 0.205195 0.0135605
    length 2.70019
    axis -0.001389 0.00012144 6.57583e-006 xyz
    dof rx ry rz
  end
  begin
    id 16
    name LeftArm
    direction 1 3.51895e-006 -8.60188e-007
    length 10.2459
    axis -23.1894 0.134785 0.967513 xyz
    dof rx ry rz
  end
  begin
    id 17
    name LeftForeArm
    direction 1 3.51921e-006 -7.32029e-007
    length 8.16799
    axis -9.91835 -0.0656957 -0.177789 xyz
    dof rx ry rz
  end
  begin
    id 18
    name LeftHand
    direction 0.992938 -0.0411636 0.11126
    length 5.32135
    axis -0.00960237 -0.00340661 0.185177 xyz
    dof rx ry rz
  end
  begin
    id 19
    name HEadDummy
    direction 1.01974e-006 0.999861 -0.016675
    length 2.99946
    axis -0.001389 0.00012144 6.56766e-006 xyz
  end
  begin
    id 20
    name HEad
    direction -0.0222689 0.980941 0.193023
    length 5.12695
    axis -0.001389 0.00012144 6.56766e-006 xyz
    dof rx ry rz
  end
  begin
    id 21
    name RightUpLegDummy
    direction -1 2.30186e-007 8.31532e-007
    length 2.93387
    axis 0 0 0 xyz
  end
  begin
    id 22
    name RightUpLeg
    direction -1.82966e-007 -1 1.56832e-007
    length 17.3336
    axis -3.4909 -0.000906625 0.00028951 xyz
    dof rx ry rz
  end
  begin
    id 23
    name RightLeg
    direction -1.82786e-007 -1 -1.80317e-007
    length 14.9995
    axis 3.68513 0.0193739 -0.131021 xyz
    dof rx ry rz
  end
  begin
    id 24
    name RightFoot
    direction 8.31721e-007 -4.63324e-011 1
    length 6.74421
    axis 4.81691e-005 -0.120479 -0.188785 xyz
    dof rx ry rz
  end
  begin
    id 25
    name RightToes
    direction 0.00124746 -0.014064 0.9999
    length 3.85082
    axis 0.000481921 0.542163 -0.142575 xyz
    dof rx ry rz
  end
:hierarchy
  begin
    root LeftUpLegDummy SpineDummy RightUpLegDummy
    LeftUpLegDummy LeftUpLeg
    LeftUpLeg LeftLeg
    LeftLeg LeftFoot
    LeftFoot LeftToes
    SpineDummy Spine
    Spine Spine1
    Spine1 RightShoulderDummy LeftShoulder1Dummy HEadDummy
    RightShoulderDummy RightShoulder
    RightShoulder RightArm
    RightArm RightForeArm
    RightForeArm RightHand
    LeftShoulder1Dummy LeftShoulder1
    LeftShoulder1 LeftArm
    LeftArm LeftForeArm
    LeftForeArm LeftHand
    HEadDummy HEad
    RightUpLegDummy RightUpLeg
    RightUpLeg RightLeg
    RightLeg RightFoot
    RightFoot RightToes
  end

:SAMPLES-PER-SECOND 30
:FULLY-SPECIFIED
:DEGREES
249
root  1.78765 34.2107 17.1303 4.853 32.7822 0.661102
LeftUpLeg  -6.69402 9.32007 0.397276
LeftLeg  9.98758 1.20562 0.132062
LeftFoot  -0.423252 -0.000584631 0.00914026
LeftToes  -15.8928 1.92152e-006 4.03786e-008
Spine  1.84833 2.49793 -1.59059
Spine1  3.50065 5.43174 -3.52621
RightShoulder  0.0363607 3.24431 4.46309
RightArm  -20.8284 -3.71115 68.5286
RightForeArm  24.0862 54.5596 14.392
RightHand  3.18737 -12.1777 -28.8518
LeftShoulder1  -0.00414709 -0.793542 -8.21401
LeftArm  -30.3518 38.6914 -61.5454
LeftForeArm  25.9146 -9.89739 -1.76241
LeftHand  0.49655 10.5443 5.00395
HEad  -0.76138 -33.3773 3.0052
RightUpLeg  -9.57484 -11.4126 -8.26848
RightLeg  6.2227 -2.80259 -0.122673
RightFoot  10.4859 0.0770124 -0.461659
RightToes  -36.8902 -0.19413 -0.297448
250
root  1.89788 34.2094 17.0873 4.73095 32.7373 0.736155
LeftUpLeg  -6.44624 9.25843 0.158404
LeftLeg  9.91403 1.30973 0.141871
LeftFoot  -0.568176 1.79672e-005 0.00228057
LeftToes  -15.4393 1.92152e-006 4.03786e-008
Spine  1.815 2.45732 -1.62029
Spine1  3.4241 5.32994 -3.57092
RightShoulder  0.0361121 3.43908 4.27951
RightArm  -21.6354 -3.21506 68.094
RightForeArm  23.6402 54.6364 14.4338
RightHand  2.92844 -10.1884 -31.6096
LeftShoulder1  -0.00242412 -0.969418 -7.93286
LeftArm  -31.4434 38.5251 -62.1042
LeftForeArm  25.8865 -9.98637 -1.77852
LeftHand  0.45904 10.255 4.73923
HEad  -0.267363 -34.1897 2.89041
RightUpLeg  -9.13768 -10.5872 -8.60874
RightLeg  5.70336 -3.55642 -0.123719
RightFoot  10.9324 0.0964995 -0.630803
RightToes  -37.471 -0.198602 -0.300395
251
root  1.98001 34.2083 17.0582 4.60271 32.7271 0.770308
LeftUpLeg  -6.28955 9.15739 0.0122402
LeftLeg  9.98317 1.40449 0.153923
LeftFoot  -0.696128 0.000540278 -0.00353934
LeftToes  -15.2647 1.92152e-006 4.03786e-008
Spine  1.80335 2.44134 -1.65224
Spine1  3.38306 5.28681 -3.62635
RightShoulder  0.037239 3.68132 4.30768
RightArm  -22.5314 -2.41832 68.0479
RightForeArm  24.5134 54.6829 14.4597
RightHand  2.08653 -6.93709 -33.0457
LeftShoulder1  -0.00048858 -1.05676 -7.65865
LeftArm  -31.3221 37.4453 -62.7577
LeftForeArm  24.7009 -10.6112 -1.89219
LeftHand  0.432237 10.0421 4.54363
HEad  0.216464 -34.7299 2.85157
RightUpLeg  -8.87824 -10.3134 -8.81819
RightLeg  5.51856 -3.84836 -0.121545
RightFoot  11.1584 0.105528 -0.702671
RightToes  -37.6282 -0.200772 -0.301867
252
root  2.03139 34.2055 17.0438 4.4624 32.7368 0.744717
LeftUpLeg  -6.28251 9.11089 -0.0303766
LeftLeg  10.2971 1.41879 0.163338
LeftFoot  -0.900578 0.000963763 -0.00859817
LeftToes  -14.9055 1.92152e-006 4.03786e-008
Spine  1.80806 2.46438 -1.66519
Spine1  3.36137 5.34138 -3.65747
RightShoulder  0.0419251 3.74735 4.59725
RightArm  -21.7922 -1.53913 69.0073
RightForeArm  25.1712 55.3615 14.8394
RightHand  0.840943 -2.82549 -32.7011
LeftShoulder1  0.00171045 -0.956065 -7.61771
LeftArm  -30.1314 35.5141 -63.1813
LeftForeArm  23.3546 -11.6606 -2.08395
LeftHand  0.404079 9.64073 4.41575
HEad  0.567295 -35.0609 2.95938
RightUpLeg  -8.71439 -9.96705 -8.91714
RightLeg  5.48512 -4.21751 -0.130816
RightFoot  11.3477 0.112458 -0.784132
RightToes  -37.964 -0.202573 -0.302973
253
root  2.06337 34.1974 17.0477 4.39838 32.7289 0.682199
LeftUpLeg  -6.3625 8.92057 -0.0288253
LeftLeg  10.6129 1.62923 0.196802
LeftFoot  -1.10734 0.00139444 -0.0151103
LeftToes  -14.6655 1.92152e-006 4.03786e-008
Spine  1.82218 2.49737 -1.65234
Spine1  3.35829 5.43066 -3.6414
RightShoulder  0.0483218 4.11946 4.85723
RightArm  -24.0259 -0.94157 71.773
RightForeArm  25.8651 56.5198 15.5204
RightHand  -0.134752 0.505822 -29.835
LeftShoulder1  0.0042239 -0.655356 -7.67512
LeftArm  -28.4541 32.9433 -63.6899
LeftForeArm  22.2249 -12.9624 -2.32377
LeftHand  0.38818 8.90876 4.60638
HEad  0.629812 -35.4093 3.14562
RightUpLeg  -8.77916 -10.0224 -8.91493
RightLeg  5.74133 -4.16657 -0.147835
RightFoot  11.3213 0.111709 -0.761862
RightToes  -37.9641 -0.204034 -0.303746
